<svg width="400" height="400" xmlns="http://www.w3.org/2000/svg">
  <defs>
    <linearGradient id="grassGradient" x1="0%" y1="0%" x2="0%" y2="100%">
      <stop offset="0%" style="stop-color:#2a5934;stop-opacity:1" />
      <stop offset="100%" style="stop-color:#0a1a0f;stop-opacity:1" />
    </linearGradient>
  </defs>
  <rect width="400" height="400" fill="url(#grassGradient)"/>
  <!-- Grass blades -->
  <g opacity="0.6">
    <rect x="50" y="250" width="2" height="80" fill="#4a7c59" transform="rotate(-5 51 290)"/>
    <rect x="80" y="240" width="2" height="90" fill="#5a8c69" transform="rotate(3 81 285)"/>
    <rect x="120" y="260" width="2" height="75" fill="#4a7c59" transform="rotate(-8 121 297)"/>
    <rect x="160" y="250" width="2" height="85" fill="#6a9c79" transform="rotate(5 161 292)"/>
    <rect x="200" y="245" width="2" height="80" fill="#4a7c59" transform="rotate(-3 201 285)"/>
    <rect x="240" y="255" width="2" height="90" fill="#5a8c69" transform="rotate(7 241 300)"/>
    <rect x="280" y="240" width="2" height="85" fill="#6a9c79" transform="rotate(-4 281 282)"/>
    <rect x="320" y="250" width="2" height="78" fill="#4a7c59" transform="rotate(6 321 289)"/>
  </g>
  <text x="200" y="360" text-anchor="middle" fill="rgba(255,255,255,0.7)" font-family="Helvetica" font-size="12">Grass Field</text>
</svg> 